<?xml version="1.0" standalone="no"?>
<!DOCTYPE svg PUBLIC "-//W3C//DTD SVG 20010904//EN"
 "http://www.w3.org/TR/2001/REC-SVG-20010904/DTD/svg10.dtd">
<svg version="1.0" xmlns="http://www.w3.org/2000/svg"
 width="600.000000pt" height="400.000000pt" viewBox="0 0 600.000000 400.000000"
 preserveAspectRatio="xMidYMid meet">

<g transform="translate(0.000000,400.000000) scale(0.100000,-0.100000)"
fill="#000000" stroke="none">
<path d="M3980 3425 c0 -8 -8 -15 -18 -15 -25 0 -104 -52 -131 -86 l-23 -29
52 -5 52 -5 -74 -145 c-90 -177 -228 -411 -297 -505 -61 -82 -140 -170 -147
-163 -4 5 -28 86 -54 186 l-11 42 -50 0 -50 0 7 -37 c10 -59 31 -142 53 -205
17 -51 18 -58 4 -70 -46 -37 -123 152 -279 685 -5 15 2 17 46 17 52 0 52 0 46
28 -4 15 -24 64 -46 109 -70 142 -163 204 -288 189 -57 -7 -158 -48 -213 -87
l-29 -21 -47 41 c-88 79 -175 85 -274 23 -98 -63 -167 -158 -297 -409 -68
-133 -87 -163 -105 -164 -20 -1 -20 -2 3 -9 l25 -8 -26 -1 c-24 -1 -28 -10
-78 -168 -45 -139 -91 -339 -91 -390 0 -19 142 -17 207 2 80 24 119 70 219
261 49 93 90 174 92 181 2 8 -16 13 -57 15 l-60 3 67 111 c126 207 233 348
335 440 l52 46 20 -45 c17 -38 22 -43 37 -34 23 15 37 -4 84 -120 37 -90 39
-93 70 -93 37 0 29 16 126 -255 77 -216 130 -318 208 -397 l66 -68 -32 -6
c-18 -3 -42 -3 -55 1 -30 10 -104 80 -141 132 -27 41 -31 43 -78 43 -28 0 -50
-2 -50 -5 0 -36 88 -138 144 -168 39 -21 55 -22 359 -25 366 -4 386 -1 480 73
32 26 91 91 134 148 65 88 73 102 56 105 -18 3 -14 14 43 114 35 61 61 115 58
119 -3 5 -18 9 -35 9 -18 0 -29 5 -29 14 0 17 65 164 165 371 42 88 85 179 96
203 l18 42 -129 0 c-109 0 -130 -2 -130 -15z"/>
<path d="M5350 1545 l0 -255 30 0 30 0 0 69 c0 50 4 72 15 81 18 15 14 19 84
-77 48 -66 56 -73 87 -73 19 0 34 2 34 5 0 3 -31 47 -70 99 -38 51 -70 97 -70
102 0 5 30 39 67 76 l67 68 -40 0 c-39 0 -45 -4 -105 -76 l-64 -77 -3 157 -3
156 -29 0 -30 0 0 -255z"/>
<path d="M427 1774 c-4 -4 -7 -115 -7 -246 l0 -238 140 0 140 0 0 25 0 25
-105 0 -105 0 0 90 0 90 95 0 c95 0 95 0 95 25 0 25 0 25 -95 25 l-95 0 0 75
0 74 98 3 c96 3 97 3 97 28 l0 25 -126 3 c-69 1 -128 -1 -132 -4z"/>
<path d="M1420 1760 c-28 -28 -11 -63 28 -58 21 2 28 9 30 30 5 39 -30 56 -58
28z"/>
<path d="M2320 1535 l0 -245 30 0 30 0 0 110 0 110 95 0 c95 0 95 0 95 25 0
25 0 25 -95 25 l-95 0 0 80 0 80 100 0 100 0 0 30 0 30 -130 0 -130 0 0 -245z"/>
<path d="M1220 1730 c-21 -5 -25 -12 -28 -48 -3 -39 -5 -42 -33 -42 -24 0 -29
-4 -29 -25 0 -21 5 -25 30 -25 l30 0 0 -124 c0 -118 1 -127 24 -153 20 -23 32
-28 69 -28 53 0 61 6 52 35 -4 14 -12 19 -22 15 -9 -3 -26 2 -39 10 -23 15
-24 21 -24 130 l0 115 45 0 c41 0 45 2 45 25 0 23 -4 25 -44 25 l-45 0 -3 48
c-3 46 -4 48 -28 42z"/>
<path d="M1623 1728 c-30 -8 -33 -12 -33 -48 0 -36 -3 -40 -25 -40 -20 0 -25
-5 -25 -25 0 -20 5 -25 24 -25 23 0 23 -2 28 -123 3 -67 10 -132 16 -144 14
-26 74 -47 108 -39 17 5 24 13 24 31 0 22 -4 24 -24 19 -46 -11 -56 15 -56
142 l0 114 45 0 c41 0 45 2 45 25 0 23 -4 25 -44 25 l-45 0 -3 48 -3 48 -32
-8z"/>
<path d="M900 1634 c-19 -8 -42 -22 -52 -31 -17 -15 -18 -14 -18 10 0 23 -4
27 -31 27 -24 0 -30 -3 -25 -16 3 -9 6 -87 6 -175 l0 -159 30 0 30 0 0 116 c0
149 17 183 92 184 28 0 41 -6 57 -26 19 -24 21 -40 21 -150 l0 -124 30 0 30 0
0 133 c0 151 -13 187 -75 213 -42 17 -51 17 -95 -2z"/>
<path d="M2770 1639 c-14 -5 -35 -22 -47 -37 l-23 -27 0 33 c0 27 -3 32 -25
32 l-25 0 0 -175 0 -175 30 0 30 0 0 106 c0 75 5 116 15 139 16 31 50 55 81
55 11 0 14 8 12 27 -4 31 -13 35 -48 22z"/>
<path d="M2955 1644 c-34 -8 -75 -26 -75 -33 1 -23 18 -31 44 -21 69 26 136
-1 136 -54 0 -21 -5 -24 -54 -29 -98 -10 -151 -55 -151 -129 0 -28 8 -45 28
-65 37 -37 110 -39 156 -5 30 22 31 22 31 2 0 -16 7 -20 31 -20 l32 0 -5 133
c-6 143 -16 180 -58 202 -31 16 -87 25 -115 19z m105 -223 c0 -42 -4 -53 -26
-70 -52 -41 -114 -19 -114 40 0 45 44 76 113 78 26 1 27 -1 27 -48z"/>
<path d="M3356 1640 c-16 -5 -39 -19 -52 -31 l-24 -22 0 26 c0 22 -5 27 -25
27 l-25 0 0 -175 0 -175 30 0 30 0 0 115 c0 128 13 170 54 181 81 20 106 -24
106 -183 l0 -113 30 0 30 0 0 124 c0 110 2 126 21 150 26 33 79 36 109 6 18
-18 20 -33 20 -150 l0 -130 36 0 37 0 -5 128 c-5 149 -20 191 -75 217 -44 21
-96 9 -136 -31 l-26 -25 -11 21 c-6 12 -27 28 -45 36 -38 16 -39 16 -79 4z"/>
<path d="M3920 1638 c-83 -23 -133 -124 -111 -225 23 -100 109 -147 226 -123
43 9 55 15 51 27 -3 8 -6 18 -6 23 0 5 -15 4 -32 -1 -94 -26 -160 5 -183 89
-6 22 -6 22 119 22 l126 0 0 38 c-1 63 -33 120 -82 142 -48 22 -58 23 -108 8z
m104 -69 c14 -17 26 -39 26 -50 0 -17 -8 -19 -94 -19 l-95 0 11 30 c25 72 107
93 152 39z"/>
<path d="M4811 1639 c-52 -16 -78 -37 -101 -83 -26 -54 -27 -139 -1 -186 69
-131 264 -109 306 33 44 147 -68 276 -204 236z m97 -55 c33 -23 52 -67 52
-119 0 -79 -43 -135 -105 -135 -83 0 -132 114 -89 206 28 58 95 81 142 48z"/>
<path d="M5230 1639 c-14 -5 -35 -22 -47 -37 l-23 -27 0 33 c0 29 -3 32 -31
32 -24 0 -30 -3 -25 -16 3 -9 6 -87 6 -175 l0 -159 30 0 30 0 0 110 c0 63 5
120 12 135 12 27 54 55 83 55 12 0 15 7 13 27 -4 31 -13 35 -48 22z"/>
<path d="M1410 1465 l0 -175 35 0 35 0 0 175 0 175 -35 0 -35 0 0 -175z"/>
<path d="M1780 1636 c0 -2 29 -75 65 -161 36 -87 65 -166 65 -177 0 -22 -64
-95 -92 -104 -16 -5 -18 -11 -13 -32 9 -36 9 -36 45 -17 43 22 77 60 107 118
25 50 143 353 143 368 0 5 -13 9 -29 9 -27 0 -30 -4 -70 -122 -23 -68 -45
-130 -47 -138 -3 -8 -28 47 -56 123 l-51 137 -33 0 c-19 0 -34 -2 -34 -4z"/>
<path d="M4153 1626 c4 -9 28 -88 54 -177 l48 -160 29 3 c29 3 31 7 73 133 23
72 43 132 43 135 1 5 34 -102 67 -213 16 -56 18 -58 47 -55 30 3 31 5 83 168
29 91 53 168 53 173 0 4 -13 7 -29 7 -28 0 -29 -2 -67 -141 l-38 -141 -13 38
c-6 22 -26 85 -43 142 -31 99 -33 103 -58 100 -25 -3 -30 -13 -71 -142 l-44
-140 -37 140 -36 139 -33 3 c-27 3 -33 0 -28 -12z"/>
<path d="M2600 978 c0 -97 -1 -100 -18 -85 -93 84 -238 -3 -241 -143 -3 -153
135 -241 239 -154 l30 26 0 -26 c0 -22 4 -26 30 -26 l30 0 0 255 0 255 -35 0
-35 0 0 -102z m-50 -113 c41 -21 50 -43 50 -125 0 -62 -3 -74 -24 -95 -47 -47
-107 -40 -149 17 -28 37 -28 129 0 166 20 28 58 52 81 52 7 0 26 -7 42 -15z"/>
<path d="M1685 1045 c-131 -50 -188 -221 -120 -360 33 -68 79 -101 161 -117
61 -11 174 3 174 22 0 32 -12 37 -89 32 -94 -5 -140 12 -178 68 -45 69 -41
192 8 254 44 56 152 84 222 57 21 -8 26 -6 31 12 3 12 1 26 -5 32 -17 17 -159
16 -204 0z"/>
<path d="M3290 815 l0 -245 30 0 30 0 0 110 0 110 90 0 c89 0 90 0 90 25 0 25
-1 25 -90 25 l-90 0 0 80 0 80 100 0 100 0 0 30 0 30 -130 0 -130 0 0 -245z"/>
<path d="M3625 1047 c-26 -20 -13 -67 18 -67 43 0 60 35 31 64 -19 19 -25 20
-49 3z"/>
<path d="M4350 1010 c-21 -5 -25 -12 -28 -48 -3 -37 -6 -42 -28 -42 -19 0 -24
-5 -24 -25 0 -20 5 -25 25 -25 l25 0 0 -117 c0 -75 5 -127 13 -143 17 -34 61
-53 103 -46 28 6 34 11 34 33 0 22 -3 24 -25 19 -17 -4 -31 0 -45 14 -18 18
-20 33 -20 130 l0 110 45 0 c41 0 45 2 45 25 0 23 -4 25 -44 25 l-45 0 -3 48
c-3 46 -4 48 -28 42z"/>
<path d="M2071 919 c-82 -25 -121 -81 -121 -176 0 -70 22 -119 69 -150 101
-68 234 -15 259 104 13 60 -3 139 -34 174 -40 45 -114 65 -173 48z m98 -55
c29 -21 51 -72 51 -119 0 -20 -6 -51 -14 -69 -37 -88 -145 -88 -182 0 -40 95
9 204 91 204 17 0 41 -7 54 -16z"/>
<path d="M2857 916 c-52 -19 -73 -40 -93 -92 -22 -58 -16 -154 13 -192 33 -44
81 -66 143 -67 74 0 110 11 110 34 0 27 -6 28 -58 18 -26 -6 -61 -7 -76 -3
-39 10 -86 59 -86 90 l0 26 120 0 120 0 0 43 c0 110 -94 179 -193 143z m108
-61 c14 -13 25 -36 25 -50 0 -25 0 -25 -90 -25 -56 0 -90 4 -90 10 0 20 30 69
47 79 33 19 82 13 108 -14z"/>
<path d="M3904 916 c-17 -8 -39 -24 -48 -37 l-16 -23 0 32 c0 29 -3 32 -31 32
-31 0 -31 -1 -25 -37 3 -21 6 -100 6 -175 l0 -138 30 0 30 0 0 113 c0 134 15
171 75 183 31 6 36 10 33 32 -4 31 -14 35 -54 18z"/>
<path d="M4083 919 c-61 -18 -94 -97 -60 -143 7 -10 40 -32 73 -49 51 -28 59
-36 62 -64 2 -24 -2 -34 -19 -43 -21 -12 -76 -9 -111 5 -21 8 -37 -33 -17 -45
23 -15 94 -20 128 -10 54 15 81 47 81 95 0 52 -18 77 -72 100 -58 25 -78 44
-78 72 0 34 40 50 91 36 21 -5 39 -7 39 -2 0 4 3 14 6 22 4 11 -5 19 -33 26
-44 12 -47 12 -90 0z"/>
<path d="M3620 745 l0 -175 30 0 30 0 0 175 0 175 -30 0 -30 0 0 -175z"/>
</g>
</svg>
